<?xml version="1.0" encoding="utf-8"?>
<!-- Generator: Adobe Illustrator 18.0.0, SVG Export Plug-In . SVG Version: 6.00 Build 0)  -->
<!DOCTYPE svg PUBLIC "-//W3C//DTD SVG 1.1//EN" "http://www.w3.org/Graphics/SVG/1.1/DTD/svg11.dtd">
<svg version="1.1" id="Layer_1" xmlns="http://www.w3.org/2000/svg" xmlns:xlink="http://www.w3.org/1999/xlink" x="0px" y="0px"
	 viewBox="0 0 389.5 48" enable-background="new 0 0 389.5 48" xml:space="preserve">
<g>
	<path fill="#FFFFFF" d="M68.2,41.6L72,6h8.6c2.2,0,4.1,0.2,5.5,0.6c1.4,0.4,2.6,1.1,3.4,2c0.8,0.9,1.3,2.1,1.5,3.4
		c0.1,0.7,0.2,1.5,0.2,2.4c0,0.8-0.1,1.7-0.2,2.7L89.7,30c-0.3,2.7-0.9,4.9-1.7,6.6c-0.9,1.6-2.2,2.9-3.9,3.7
		c-1.8,0.8-4.1,1.3-7,1.3H68.2z M75.9,36.7h1.5c0.6,0,1.1,0,1.6-0.1c0.5-0.1,0.8-0.2,1.1-0.3c0.3-0.1,0.6-0.4,0.8-0.7
		s0.4-0.6,0.6-0.8c0.1-0.3,0.3-0.7,0.4-1.2c0.1-0.5,0.2-1,0.2-1.3c0.1-0.4,0.1-0.9,0.2-1.7l1.5-14.1c0.1-0.8,0.1-1.5,0.1-2.1
		c0-0.4,0-0.8-0.1-1.1c-0.1-0.8-0.4-1.4-1-1.7c-0.6-0.4-1.5-0.5-2.8-0.5h-1.5L75.9,36.7z"/>
	<path fill="#FFFFFF" d="M93.3,41.6L97.1,6h7l-3.7,35.6H93.3z"/>
	<path fill="#FFFFFF" d="M114.8,42.1c-1.7,0-3.2-0.3-4.4-0.9s-2.1-1.4-2.7-2.5c-0.6-1.1-1-2.4-1.2-3.9c-0.1-0.7-0.2-1.5-0.2-2.2
		c0-0.9,0.1-1.9,0.2-2.9l1.2-11.7c0.2-1.6,0.4-3,0.8-4.3c0.3-1.3,0.8-2.4,1.4-3.5c0.6-1,1.3-1.9,2.2-2.6s1.9-1.2,3.1-1.6
		c1.2-0.4,2.6-0.6,4.2-0.6c1.9,0,3.4,0.2,4.7,0.7c1.3,0.5,2.2,1.2,2.9,2.1s1.1,2,1.4,3.3c0.1,0.7,0.2,1.4,0.2,2.3
		c0,0.7,0,1.4-0.1,2.1l-0.2,2h-6.9l0.2-2.3c0.1-0.9,0.1-1.6,0.1-2.3c0-0.1,0-0.2,0-0.3c0-0.7-0.2-1.3-0.7-1.7
		c-0.4-0.4-1.1-0.6-2.1-0.6c-0.6,0-1.1,0.1-1.6,0.3c-0.4,0.2-0.8,0.5-1,0.8s-0.5,0.7-0.6,1.3s-0.3,1-0.4,1.5c-0.1,0.4-0.1,1-0.2,1.7
		l-1.6,15.2c-0.1,0.6-0.1,1.2-0.1,1.7c0,0.4,0,0.8,0.1,1.2c0.1,0.8,0.4,1.5,0.8,1.9c0.5,0.5,1.1,0.7,2.1,0.7c1.3,0,2.3-0.5,3-1.5
		c0.6-1,1-2.4,1.2-4.3l0.3-3.4h-3.6l0.5-4.4h10l-1.9,18.3h-4.7l-0.1-3.3C119.8,40.8,117.7,42.1,114.8,42.1z"/>
	<path fill="#FFFFFF" d="M130.9,41.6L134.6,6h7l-3.7,35.6H130.9z"/>
	<path fill="#FFFFFF" d="M146.7,41.6l3.2-30.4h-5.8l0.6-5.2h18.5l-0.5,5.2H157l-3.2,30.4H146.7z"/>
	<path fill="#FFFFFF" d="M160.4,41.6L171.1,6h7.7l3.2,35.6h-6.6l-0.5-7.9h-5.7l-2.2,7.9H160.4z M170.4,29.2h4.3L174.1,15L170.4,29.2
		z"/>
	<path fill="#FFFFFF" d="M185.6,41.6L189.4,6h7.1l-3.2,30.7h8.4l-0.5,4.9H185.6z"/>
	<path fill="#FFFFFF" d="M224.5,42.1c-1.6,0-2.9-0.2-4.1-0.6s-2.1-0.9-2.8-1.6c-0.7-0.7-1.3-1.5-1.7-2.5c-0.4-1-0.6-2.1-0.7-3.3
		c0-0.4,0-0.8,0-1.2c0-0.9,0-1.8,0.1-2.8l1.3-12.5c0.2-1.9,0.5-3.6,1-5c0.5-1.4,1.2-2.7,2.1-3.7c0.9-1.1,2.1-1.9,3.5-2.4
		c1.4-0.5,3.1-0.8,5.1-0.8c1.8,0,3.4,0.2,4.7,0.7c1.3,0.5,2.2,1.2,2.9,2.1c0.7,0.9,1.1,2,1.3,3.2c0.1,0.7,0.2,1.4,0.2,2.2
		c0,0.6,0,1.3-0.1,2.1l-0.3,3.1h-6.9l0.3-3.3c0-0.4,0.1-0.7,0.1-0.9c0-0.1,0-0.4,0.1-0.8s0-0.7,0-0.8c0-0.1,0-0.4-0.1-0.7
		c0-0.3-0.1-0.5-0.2-0.6c-0.1-0.1-0.2-0.3-0.3-0.5s-0.3-0.3-0.5-0.4c-0.2-0.1-0.4-0.2-0.7-0.2c-0.3-0.1-0.6-0.1-0.9-0.1
		c-0.5,0-0.9,0.1-1.3,0.2c-0.4,0.1-0.7,0.3-0.9,0.6s-0.5,0.5-0.6,0.8s-0.3,0.6-0.4,1.1c-0.1,0.5-0.2,0.9-0.3,1.2
		c-0.1,0.4-0.1,0.8-0.2,1.4l-1.6,15.7c-0.1,0.6-0.1,1.2-0.1,1.7c0,0.9,0.1,1.7,0.4,2.2c0.4,0.8,1.2,1.2,2.4,1.2
		c0.5,0,0.9-0.1,1.2-0.2c0.4-0.1,0.7-0.3,0.9-0.6c0.2-0.3,0.4-0.5,0.6-0.8s0.3-0.6,0.4-1.1s0.2-0.9,0.2-1.2c0-0.3,0.1-0.8,0.2-1.4
		l0.4-3.4h6.9l-0.3,3c-0.2,1.6-0.5,3.1-0.9,4.3s-1.1,2.4-1.9,3.4c-0.8,1-1.9,1.8-3.3,2.3S226.4,42.1,224.5,42.1z"/>
	<path fill="#FFFFFF" d="M238.8,41.6L242.6,6h8.9c1.5,0,2.8,0.1,4,0.3c1.1,0.2,2.2,0.5,3.1,0.9c0.9,0.4,1.7,1,2.2,1.7
		c0.6,0.7,1,1.6,1.2,2.7c0.1,0.7,0.2,1.4,0.2,2.2c0,0.5,0,1.1-0.1,1.7c-0.2,2.2-0.8,4.1-1.7,5.5c-0.9,1.4-2.1,2.5-3.8,3.2l3.4,17.4
		h-7.1l-2.7-16.1h-2.6L246,41.6H238.8z M248.1,21.2h1.8c1.8,0,3.1-0.4,3.9-1.2c0.8-0.8,1.3-2.1,1.5-4c0-0.4,0.1-0.9,0.1-1.2
		c0-1.2-0.2-2-0.6-2.6c-0.6-0.8-1.7-1.2-3.4-1.2h-2.2L248.1,21.2z"/>
	<path fill="#FFFFFF" d="M262.1,41.6L272.9,6h7.7l3.2,35.6h-6.6l-0.5-7.9H271l-2.2,7.9H262.1z M272.1,29.2h4.3L275.8,15L272.1,29.2z
		"/>
	<path fill="#FFFFFF" d="M287.4,41.6L291.1,6h15l-0.5,4.9h-7.9l-1,9.7h6.5l-0.5,5h-6.5l-1.7,16H287.4z"/>
	<path fill="#FFFFFF" d="M309.2,41.6l3.2-30.4h-5.8l0.6-5.2h18.5l-0.5,5.2h-5.6l-3.2,30.4H309.2z"/>
	<path fill="#FFFFFF" d="M324.9,41.6L328.6,6h15.4l-0.5,4.9h-8.3l-1,9.6h6.5l-0.5,5h-6.5l-1.2,11.2h8.4l-0.5,4.9H324.9z"/>
	<path fill="#FFFFFF" d="M344.1,41.6L347.8,6h8.9c1.5,0,2.8,0.1,4,0.3c1.1,0.2,2.2,0.5,3.1,0.9c0.9,0.4,1.7,1,2.2,1.7
		c0.6,0.7,1,1.6,1.2,2.7c0.1,0.7,0.2,1.4,0.2,2.2c0,0.5,0,1.1-0.1,1.7c-0.2,2.2-0.8,4.1-1.7,5.5c-0.9,1.4-2.1,2.5-3.8,3.2l3.4,17.4
		h-7.1l-2.7-16.1h-2.6l-1.7,16.1H344.1z M353.3,21.2h1.8c1.8,0,3.1-0.4,3.9-1.2c0.8-0.8,1.3-2.1,1.5-4c0-0.4,0.1-0.9,0.1-1.2
		c0-1.2-0.2-2-0.6-2.6c-0.6-0.8-1.7-1.2-3.4-1.2h-2.2L353.3,21.2z"/>
	<path fill="#FFFFFF" d="M378.2,42.1c-3.3,0-5.7-0.9-7.1-2.8c-1.2-1.6-1.8-3.8-1.8-6.7c0-0.5,0-1.1,0.1-1.6l6.3-1.1
		c-0.1,0.6-0.1,1.2-0.1,1.8c0,3.3,1,5,3,5c0.9,0,1.5-0.3,2-0.8s0.7-1.3,0.8-2.2c0-0.3,0-0.5,0-0.8c0-0.7-0.1-1.3-0.3-1.9
		c-0.3-0.8-0.6-1.5-1-2c-0.4-0.6-1.1-1.2-1.9-2l-3.6-3.5c-1.3-1.3-2.3-2.6-2.9-3.9c-0.4-1-0.7-2.1-0.7-3.5c0-0.5,0-1,0.1-1.5
		c0.3-2.9,1.4-5.1,3.2-6.6c1.9-1.6,4.3-2.4,7.2-2.4c0,0,0.1,0,0.2,0c1.3,0,2.5,0.2,3.4,0.6c1,0.4,1.8,0.9,2.4,1.5
		c0.6,0.6,1,1.4,1.3,2.3c0.3,0.9,0.5,1.8,0.6,2.6c0.1,0.6,0.1,1.2,0.1,1.8c0,0.3,0,0.7,0,1.1l-6.2,1c0-0.7,0.1-1.4,0.1-2
		c0-0.3,0-0.6,0-0.9c0-0.8-0.2-1.5-0.6-2c-0.4-0.5-0.9-0.7-1.6-0.7c-0.1,0-0.1,0-0.2,0c-0.8,0-1.5,0.4-2,0.9s-0.8,1.3-0.9,2.1
		c0,0.2,0,0.4,0,0.6c0,0.6,0.1,1.1,0.3,1.7c0.2,0.7,0.5,1.3,0.8,1.6c0.3,0.4,0.8,0.9,1.4,1.5l3.6,3.4c0.7,0.7,1.4,1.4,1.9,2.1
		c0.5,0.7,1,1.4,1.4,2.3c0.4,0.9,0.7,1.8,0.9,2.8c0.1,0.6,0.2,1.2,0.2,1.8c0,0.5,0,1-0.1,1.5c-0.3,2.6-1.3,4.7-3.2,6.4
		S380.9,42.1,378.2,42.1z"/>
</g>
<g>
	<path fill="#FFFFFF" d="M5.2,14.7l9.4-9.4L11.3,2c-0.4-0.4-1-0.4-1.4,0l-8,8c-0.4,0.4-0.4,1,0,1.4L5.2,14.7z"/>
	
		<rect x="7.2" y="10.3" transform="matrix(-0.7071 0.7071 -0.7071 -0.7071 33.5605 14.0147)" fill="#FFFFFF" width="13.3" height="7.3"/>
	
		<rect x="27.6" y="29.3" transform="matrix(-0.7071 0.7071 -0.7071 -0.7071 82.8445 34.4293)" fill="#FFFFFF" width="13.3" height="10.1"/>
	<path fill="#FFFFFF" d="M43.7,35l-8.8,8.8l9.5,1.9c0.1,0,0.1,0,0.2,0c0.3,0,0.5-0.1,0.7-0.3c0.2-0.2,0.3-0.6,0.3-0.9L43.7,35z"/>
	<path fill="#FFFFFF" d="M45.3,12l-10-10c-0.4-0.4-1-0.4-1.4,0l-5.3,5.3l2.7,2.7c0.4,0.4,0.4,1,0,1.4c-0.2,0.2-0.5,0.3-0.7,0.3
		s-0.5-0.1-0.7-0.3l-2.7-2.7l-3.6,3.6l1.7,1.7c0.4,0.4,0.4,1,0,1.4c-0.2,0.2-0.5,0.3-0.7,0.3s-0.5-0.1-0.7-0.3l-1.7-1.7l-3.6,3.6
		l3.7,3.7c0.4,0.4,0.4,1,0,1.4c-0.2,0.2-0.5,0.3-0.7,0.3s-0.5-0.1-0.7-0.3l-3.7-3.7l-3.6,3.6l1.7,1.7c0.4,0.4,0.4,1,0,1.4
		c-0.2,0.2-0.5,0.3-0.7,0.3s-0.5-0.1-0.7-0.3l-1.7-1.7l-3.6,3.6l3.7,3.7c0.4,0.4,0.4,1,0,1.4c-0.2,0.2-0.5,0.3-0.7,0.3
		s-0.5-0.1-0.7-0.3l-3.7-3.7L1.9,34c-0.4,0.4-0.4,1,0,1.4l10,10c0.2,0.2,0.5,0.3,0.7,0.3s0.5-0.1,0.7-0.3l32-32
		C45.7,13,45.7,12.3,45.3,12z M37.6,15.7c-1.1,0-2-0.9-2-2s0.9-2,2-2s2,0.9,2,2S38.7,15.7,37.6,15.7z"/>
</g>
</svg>
