<?xml version="1.0" encoding="utf-8"?>
<!-- Generator: Adobe Illustrator 18.0.0, SVG Export Plug-In . SVG Version: 6.00 Build 0)  -->
<!DOCTYPE svg PUBLIC "-//W3C//DTD SVG 1.1//EN" "http://www.w3.org/Graphics/SVG/1.1/DTD/svg11.dtd">
<svg version="1.1" id="Layer_1" xmlns="http://www.w3.org/2000/svg" xmlns:xlink="http://www.w3.org/1999/xlink" x="0px" y="0px"
	 viewBox="0 0 76 76" enable-background="new 0 0 76 76" xml:space="preserve">
<circle fill="#188AFD" cx="38" cy="38" r="38"/>
<g>
	<path fill="#FFFFFF" d="M51.1,34H39.8L42,20.9c0-0.3-0.1-0.5-0.3-0.6c-0.2-0.1-0.5,0-0.7,0.2L24.4,41.1c-0.1,0.2-0.2,0.4-0.1,0.6
		c0.1,0.2,0.3,0.3,0.5,0.3h11.3L34,55.1c0,0.3,0.1,0.5,0.3,0.6c0.1,0,0.2,0.1,0.2,0.1c0.2,0,0.3-0.1,0.4-0.2l16.6-20.6
		c0.1-0.2,0.2-0.4,0.1-0.6C51.6,34.1,51.4,34,51.1,34z"/>
</g>
</svg>
